<svg clip-rule="evenodd" fill-rule="evenodd" stroke-linejoin="round" stroke-miterlimit="2" viewBox="0 0 39 39"
    xmlns="http://www.w3.org/2000/svg">
    <path d="m23.411 37.968c7.245-1.628 12.928-7.31 14.555-14.555h-14.555z" fill="#005f9c" fill-rule="nonzero" />
    <path
        d="m-.001 19.214c0 .441.015.879.045 1.313.54.047 1.086.072 1.638.072 10.269-.011 18.715-8.457 18.727-18.726 0-.622-.03-1.235-.09-1.841-.366-.021-.734-.031-1.106-.032-10.54 0-19.214 8.674-19.214 19.214"
        fill="#005f9c" fill-rule="nonzero" />
    <path d="m37.966 15.014c-1.126-5.014-4.215-9.373-8.572-12.097-.148 4.23-1.269 8.37-3.276 12.097z" fill="#005f9c"
        fill-rule="nonzero" />
    <path d="m3.03 29.573c2.732 4.265 7.04 7.284 11.983 8.394v-11.763c-3.685 2.023-7.784 3.176-11.983 3.369"
        fill="#005f9c" fill-rule="nonzero" />
    <path
        d="m15.013 15.014h11.105c2.007-3.727 3.128-7.867 3.276-12.097-2.733-1.713-5.855-2.705-9.075-2.884.059.605.089 1.218.09 1.84-.011 10.268-8.457 18.715-18.726 18.727-.553 0-1.099-.025-1.639-.072.215 3.218 1.243 6.33 2.986 9.045 4.199-.194 8.298-1.346 11.983-3.369z"
        fill="#37b3e5" fill-rule="nonzero" />
    <path
        d="m37.966 15.014h-11.848c-1.286 2.379-2.912 4.558-4.826 6.469-1.859 1.862-3.974 3.451-6.279 4.721v11.763c2.765.615 5.633.616 8.398.001v-14.555h14.556c.615-2.766.615-5.634-.001-8.399"
        fill="#ffa300" fill-rule="nonzero" />
    <path d="m26.118 15.014h-11.105v11.19c2.306-1.27 4.42-2.859 6.28-4.721 1.914-1.911 3.539-4.09 4.825-6.469"
        fill="#fff" fill-rule="nonzero" />

</svg>